<?xml version="1.0" encoding="UTF-8"?>
<svg id="Layer_1" data-name="Layer 1" xmlns="http://www.w3.org/2000/svg" viewBox="0 0 1080 1080">
  <defs>
    <style>
      .cls-1 {
        fill: #0a2e4e;
        stroke-width: 0px;
      }
    </style>
  </defs>
  <path class="cls-1" d="M869.8,119.54c0,9.57,0,19.14,0,28.7.02,25.08.53,50.18-.07,75.24-.53,21.99-2.15,43.96-3.56,65.93-.85,13.24-1.56,26.54-3.47,39.65-3.36,23.1-6.9,46.21-11.61,69.06-7.9,38.37-20.42,75.3-38.02,110.38-13.33,26.59-29.94,51.02-49.1,73.77-30.84,36.61-67.42,66.52-107.07,93.01-36.06,24.09-74.06,44.56-113.52,62.41-1.98.89-5.09.79-7.1-.13-38.91-17.8-76.81-37.55-112.02-61.98-18.91-13.12-37.82-26.41-55.51-41.09-24.76-20.54-47.16-43.61-66.61-69.39-28.19-37.36-48.17-78.78-61.88-123.4-8.76-28.49-16.02-57.33-19.89-86.9-2.85-21.81-5.39-43.69-7.17-65.61-4.45-54.77-1.62-109.67-2.25-164.51-.05-4.39,1.58-6.59,5.81-8.01,24.87-8.37,49.67-16.95,74.46-25.58,36.84-12.82,73.63-25.8,110.48-38.58,32.1-11.13,64.28-22.03,96.38-33.13,11.76-4.07,23.46-8.32,35.08-12.75,4.69-1.79,8.94-1.69,13.67-.01,33.13,11.75,66.33,23.29,99.5,34.92,25.71,9.01,51.39,18.13,77.12,27.08,27.48,9.56,55,19,82.51,28.48,19.88,6.85,39.76,13.68,59.64,20.54.93.32,1.76.91,2.64,1.38.51.18,1.02.36,1.53.54ZM249.4,144.74c-.3,1.51-.54,2.17-.54,2.82.17,32.82.3,65.63.59,98.44.25,28.92,1.71,57.75,5.04,86.52,2.63,22.74,5.9,45.35,11.54,67.49,7.73,30.33,17.18,60.06,31.38,88.21,11.59,22.97,25.09,44.58,41.25,64.49,20.77,25.59,44.72,48.04,71.14,67.65,17,12.62,34.42,24.86,52.61,35.67,23.84,14.17,48.62,26.75,73,40.03,3.14,1.71,6.04,2.02,9.52.31,49.83-24.46,97.88-51.72,140.58-87.63,28.62-24.07,54.22-50.86,75.13-81.95,21.81-32.43,36.62-67.98,47.55-105.39,10.23-35.01,15.85-70.83,19.69-106.94,2.06-19.36,3.06-38.9,3.36-58.37.54-34.67.19-69.36.18-104.04,0-1.96-.34-3.93-.55-6.26-5.98-2.02-11.71-3.89-17.4-5.91-30.6-10.83-61.18-21.72-91.78-32.55-27.44-9.7-54.9-19.34-82.34-29.01-28.4-10-56.89-19.75-85.13-30.16-9.1-3.36-17.53-5.28-26.42-.05-2.28,1.34-4.98,2.01-7.52,2.88-39.28,13.52-78.59,26.94-117.84,40.54-44.04,15.25-88.02,30.66-132.03,45.99-6.97,2.43-13.95,4.79-20.98,7.2Z"/>
  <path class="cls-1" d="M667.09,874.71v-111.28c2.02-.26,3.8-.67,5.59-.68,16.66-.04,33.32-.09,49.98.02,7.92.05,15.17,2.31,21.74,6.96,13.16,9.31,17.87,30.4,2.85,43.72-1.25,1.11-2.46,2.27-3.59,3.32,3.55,3.12,7.35,5.86,10.43,9.26,8.86,9.78,8.49,27.95-.65,37.42-7.08,7.33-15.77,11.4-26.05,11.48-18.17.14-36.35.11-54.52.13-1.65,0-3.3-.19-5.77-.35ZM691.51,852.84c1.56.35,2.52.75,3.48.75,9.92.03,19.84.19,29.76-.08,7.59-.21,11.83-4.89,11.74-12.22-.08-7.34-4.4-11.72-12.09-11.84-9.41-.15-18.83-.08-28.25-.03-1.44,0-2.88.41-4.64.68v22.75ZM691.47,807.51c11.2,0,21.73.56,32.15-.22,5.93-.44,8.53-4.55,8.73-9.96.27-7.47-4.24-12.05-12.67-12.3-8.04-.24-16.09-.09-24.14-.03-1.26,0-2.52.48-4.07.79v21.71Z"/>
  <path class="cls-1" d="M590.3,877.31c-24.43-.05-41.96-8.14-54.17-26.09-19.05-28-10.36-64.76,18.94-81.67,25.87-14.93,53.89-10.76,75.64,7.35,18.14,15.11,23.37,46.61,12.25,67.7-11.84,22.45-30.9,32.19-52.66,32.71ZM587.26,783.12c-20.26.05-35.3,14.26-35.17,34.9.14,21.81,12.59,37.14,35.51,37.34,20.42.18,35.55-15.21,35.68-35.79.13-21.01-15.08-36.4-36.03-36.45Z"/>
  <path class="cls-1" d="M399.11,835.45h-23.84c0-6.67-.24-12.46.22-18.2.09-1.09,2.96-2.76,4.57-2.79,13.13-.23,26.26-.13,39.39-.12,3.32,0,4.87,1.65,4.85,5.02-.06,10.61.3,21.23-.22,31.81-.16,3.2-2.04,6.82-4.2,9.31-8.56,9.9-20.01,14.71-32.71,16.23-15.02,1.8-29.88.49-42.82-8.02-17.32-11.38-26.04-27.46-26.46-48.73-.52-25.94,15.09-45.39,36.18-53.71,23.23-9.17,44.54-5.22,63.38,11.32.86.75,1.54,1.72,2.63,2.95-4.81,5.3-9.5,10.48-14.71,16.22-2.64-1.84-5.07-3.49-7.46-5.2-13.7-9.8-33.72-8.82-45.3,2.22-10.68,10.19-13.32,27.72-6.43,42.66,6.05,13.11,20.66,20.76,36.03,18.78,2.49-.32,4.98-.86,7.41-1.54,9.43-2.64,11.93-7.04,9.49-18.21Z"/>
  <path class="cls-1" d="M803.82,850.57c-2.93,6.49-6.02,13-8.81,19.64-1.43,3.4-3.5,4.94-7.28,4.8-6.13-.23-12.27-.06-19.14-.06.76-2.47,1.06-3.91,1.62-5.23,10.75-25.2,21.54-50.38,32.31-75.57,3.83-8.96,7.74-17.89,11.42-26.91,1.61-3.96,4.13-5.8,8.47-5.53,4.02.25,8.08.2,12.1.02,3.52-.16,5.52,1.26,6.91,4.52,7.3,17.17,14.79,34.26,22.17,51.4,7.38,17.14,14.71,34.3,22.05,51.45.64,1.49,1.15,3.04,2.03,5.41-8.15,0-15.6.22-23.02-.2-1.35-.08-2.95-2.57-3.75-4.26-3-6.36-5.71-12.86-8.6-19.48h-48.47ZM812.75,828.87h31.25c-5.24-12.51-10.18-24.3-15.13-36.1-.43.04-.86.09-1.3.13-4.77,11.57-9.54,23.15-14.83,35.97Z"/>
  <path class="cls-1" d="M221.83,875.74c-8.21,0-15.23.26-22.2-.2-1.53-.1-3.4-2.56-4.24-4.34-2.52-5.31-4.67-10.79-6.84-16.26-1.21-3.05-3.18-4.33-6.54-4.3-13.29.14-26.58.12-39.86.01-3.14-.03-5.01,1.17-6.19,4.03-2.38,5.75-5,11.39-7.36,17.14-1.18,2.87-3.07,4.18-6.17,4.14-6.29-.08-12.57-.03-20.29-.03,16.36-38.37,32.07-75.21,48.17-112.96,7.09,0,13.94-.29,20.75.2,1.74.13,4.01,2.41,4.82,4.24,6.85,15.53,13.39,31.2,20.07,46.81,7.94,18.54,15.93,37.06,23.87,55.61.63,1.48,1.06,3.05,2.04,5.91ZM163.22,793.04c-.54.06-1.08.12-1.62.19-4.77,11.93-9.55,23.86-14.53,36.32h30.85c-5.12-12.71-9.91-24.61-14.7-36.51Z"/>
  <path class="cls-1" d="M198.65,957.36c0-6.95.07-12.74-.02-18.52-.13-9.07-.44-18.14-.51-27.22-.05-6.86.58-7.38,7.55-7.41,3.47-.02,6.95,0,11.07,0v86.26c-7.96,3.84-16.02,1.88-20.76-4.83-10.59-14.97-21.22-29.91-31.85-44.85-.97-1.36-2.05-2.63-3.95-5.07v55.7h-18.08v-86.69c5.68,0,11.08-.49,16.32.24,2.12.3,4.24,2.99,5.73,5.04,10.49,14.42,20.81,28.95,31.21,43.44.75,1.05,1.66,1.99,3.3,3.92Z"/>
  <path class="cls-1" d="M812.63,904.25c5.66,0,10.88-.45,15.95.22,1.99.26,4.01,2.77,5.4,4.7,11.11,15.42,22.07,30.94,34.08,46.33v-50.88h18.6v86c-5.23,0-10.09.36-14.84-.19-1.73-.2-3.55-2.32-4.75-3.98-9.16-12.67-18.17-25.46-27.26-38.19-2.58-3.62-5.27-7.15-7.91-10.73-.43.14-.87.28-1.3.42v52.35h-17.96v-86.06Z"/>
  <path class="cls-1" d="M750.77,902.63c26.15.2,46.54,19.67,46.34,44.55-.21,26.13-22.66,47.21-49.1,46.1-23.07-.97-45.93-20.12-45.07-47.39.76-24.19,21.54-43.46,47.84-43.26ZM775.92,947.74c1.13-15.61-9.77-27.3-25.54-27.43-15.44-.13-27,11.87-26.96,27.89.03,15.2,11.7,27.53,26.52,27.42,13.48-.11,27.09-10.11,25.97-27.87Z"/>
  <path class="cls-1" d="M372.46,902.93c26.82-.01,46.99,19.29,46.93,44.92-.07,25.76-20.49,44.95-47.31,45.43-24.7.44-47.13-20.76-46.9-45.57.23-25.37,20.6-44.78,47.28-44.79ZM398.96,948.26c.03-16.05-11.52-28.07-26.84-27.93-14.82.14-26.22,11.81-26.33,26.97-.11,16.22,11.25,28.46,26.4,28.47,15.19,0,26.74-11.86,26.77-27.51Z"/>
  <path class="cls-1" d="M292.99,956.81v-51.98h17.88v86.61c-5.29,0-10.14.27-14.93-.16-1.46-.13-3.07-1.93-4.09-3.35-10.56-14.77-21.01-29.62-31.52-44.43-1.42-2-3-3.88-5.44-5.5v53.27h-18.15v-86.88c5.24,0,10.25-.4,15.14.2,1.91.23,3.93,2.42,5.23,4.21,11.27,15.51,22.39,31.13,33.55,46.72.38.54.82,1.03,1.24,1.54.36-.08.72-.17,1.08-.25Z"/>
  <path class="cls-1" d="M900.61,874.38c-.2-2.71-.47-4.68-.47-6.66-.05-33-.07-66-.07-98.99,0-6.39.53-6.95,6.89-6.94,5.62,0,11.25.19,17.52.31v91.35h51.08v20.94h-74.95Z"/>
  <path class="cls-1" d="M519.94,875.24h-75.3v-111.74h23.28v90.03h52.02v21.7Z"/>
  <path class="cls-1" d="M592.17,991.14c-6.45,0-11.48.28-16.44-.16-1.53-.14-3.43-1.94-4.21-3.47-1.9-3.73-3.37-7.7-4.75-11.66-.97-2.8-2.6-4-5.58-3.97-9.41.1-18.83.12-28.24-.01-3.19-.05-5,1.33-6.13,4.14-1.37,3.43-3.07,6.75-4.23,10.25-1.27,3.82-3.63,5.23-7.58,4.99-4.31-.26-8.64-.06-13.47-.06.21-1.45.15-2.6.55-3.56,10.37-24.62,20.79-49.21,31.22-73.81.79-1.86,1.66-3.67,2.5-5.51.28-.61.44-1.35.89-1.8,4.82-4.79,10.83-1.75,16.27-2.15,1.61-.12,4.27,2.06,5.01,3.8,9.59,22.57,18.93,45.25,28.3,67.91,1.9,4.59,3.62,9.25,5.89,15.06ZM535.4,955.26c8.26.57,15.2.58,22.9.14-3.92-9.68-7.34-18.11-11.25-27.74-4.11,9.73-7.67,18.15-11.66,27.59Z"/>
  <path class="cls-1" d="M901.33,977.34c4.03-4.35,7.66-8.25,11.54-12.44,3.85,2.39,7.4,4.9,11.21,6.89,6.9,3.61,14.18,5.04,21.94,2.94,3.72-1.01,5.8-3.4,6.29-7.05.5-3.73-1.69-6.22-4.9-7.38-7.27-2.62-14.7-4.81-21.99-7.39-3.15-1.11-6.32-2.42-9.13-4.2-12.8-8.08-14.73-23.43-4.52-34.59,10.25-11.2,26.39-14.59,41.82-8.17,5.77,2.4,11.02,6.04,17.56,9.71-4.41,5.06-7.84,9-11.58,13.29-2.03-1.08-3.68-2.19-5.49-2.86-5.31-1.97-10.61-4.07-16.08-5.5-2.26-.59-5.01.12-7.4.75-3.28.87-5.46,3.49-4.9,6.72.39,2.25,2.24,5.25,4.19,6.05,6.98,2.86,14.35,4.76,21.44,7.37,3.91,1.44,7.7,3.36,11.3,5.48,10.86,6.38,11.24,22.43,5.8,31.02-4.73,7.48-11.5,12.32-20.12,14.11-16.18,3.37-30.66-.6-43.41-10.99-1.14-.93-2.05-2.16-3.54-3.76Z"/>
  <path class="cls-1" d="M421.47,904.36c6.39,0,11.92-.38,17.33.23,1.61.18,3.48,2.91,4.25,4.86,7.05,17.83,13.87,35.74,20.77,53.63.29.75.65,1.47,1.52,3.42,1.29-3.23,2.2-5.44,3.06-7.68,6.38-16.64,12.81-33.27,19.06-49.96,1.25-3.35,3.16-4.86,6.71-4.74,4.77.15,9.54.04,15.31.04-1.75,4.39-2.96,7.45-4.18,10.49-9.66,24.02-19.36,48.02-28.91,72.09-1.33,3.36-3.3,4.52-6.83,4.55-13.74.12-13.72.21-19.17-13.52-5.71-14.38-11.44-28.75-17.2-43.11-3.44-8.59-6.94-17.15-10.38-25.73-.42-1.04-.65-2.16-1.34-4.56Z"/>
  <path class="cls-1" d="M235.82,763.38h23.18v112.02h-23.18v-112.02Z"/>
  <path class="cls-1" d="M609.7,921.57h-25.4v-16.83h71.82v16.49h-26.41v69.27h-18.71c-.25-2.04-.77-4.39-.78-6.74-.07-18.34-.02-36.68-.05-55.01,0-2.13-.28-4.26-.48-7.18Z"/>
  <path class="cls-1" d="M105.5,991.33v-86.04h18.31v86.04h-18.31Z"/>
  <path class="cls-1" d="M687.76,990.66h-18.26v-86.07h18.26v86.07Z"/>
  <path class="cls-1" d="M680.58,1041.42c6.1-1.72,7.5-1.2,10.2,3.64,2.82,5.05,5.61,10.11,8.82,15.91,4.35-7.48,8.11-13.96,11.86-20.42h7.61v37.81c-2.15.09-4.02.18-6.56.29v-22.97c-.44-.14-.87-.28-1.31-.42-2.3,3.85-4.58,7.73-6.92,11.56-3.52,5.76-5.81,5.76-9.17-.09-2.24-3.9-4.33-7.88-7.25-11.73v23.31h-7.28v-36.89Z"/>
  <path class="cls-1" d="M501.59,1077.72c-3.95,2.04-6.33.99-8.51-2.16-4.66-6.74-9.59-13.3-15.52-19.75v22.6h-7.36v-36.84c3.96-1.76,6.7-1.02,9,2.32,4.74,6.91,9.65,13.69,15.27,21.64v-24.36h7.13v36.57Z"/>
  <path class="cls-1" d="M393.4,1078.4h-6.82v-36.63c4.04-2.28,6.69-.89,9.03,2.49,4.57,6.59,9.3,13.07,14.81,19.4v-22.43c2.64-.18,4.78-.33,7.44-.51v37.13c-3.65,1.94-6.09.71-8.1-2.04-4.07-5.55-8.11-11.13-12.19-16.67-1.06-1.44-2.24-2.79-4.18-5.17v24.42Z"/>
  <path class="cls-1" d="M355.98,1065.88c-.28,4.05-.56,7.99-.88,12.48-2.48.14-4.5.26-7.12.41v-37.78c7.66-.35,15.37-2.02,22.67,1.07,8.85,3.74,9.9,14.57,2.4,20.51-.89.71-1.79,1.41-3.06,2.42,1.41,2.25,2.7,4.35,4.03,6.42,1.24,1.94,2.52,3.87,3.93,6.04-3.77,2.39-6.72,1.97-9.05-1.21-1.88-2.57-3.54-5.31-5.16-8.05-1.69-2.89-3.87-4.05-7.76-2.31ZM355.29,1058.67c4.16-.41,7.55-.27,10.6-1.24,1.57-.5,3.51-2.98,3.47-4.52-.04-1.58-2.02-3.99-3.62-4.47-2.87-.86-6.09-.55-9.69-.75-.26,3.82-.46,6.74-.75,10.98Z"/>
  <path class="cls-1" d="M244.27,1040.37c10.95-.44,19.79,8.13,20.04,19.66.23,10.65-7.92,19.27-20.2,19.49-11.09.2-19.97-8.74-19.97-19.74,0-10.96,8.79-19.44,20.13-19.41ZM244.38,1047.62c-7.08.03-12.45,5.35-12.55,12.45-.1,6.65,5.54,12.33,12.13,12.22,7.61-.12,12.42-5.12,12.43-12.92,0-6.26-5.63-11.77-12.01-11.75Z"/>
  <path class="cls-1" d="M915.43,1077.64v-37c10.53-3.36,23.28-.34,28.67,6.52,6.88,8.76,5.34,20.42-3.6,27.12-5.97,4.48-17.09,6.09-25.07,3.36ZM922.84,1070.85c7.49,1.63,12.97-.42,15.88-5.52,2.64-4.62,2.26-10.32-.94-14.1-3.21-3.78-9.13-4.76-14.95-2.27v21.89Z"/>
  <path class="cls-1" d="M877.35,1078.67v-38.59h26.39v7.16h-18.07v8.37h16.05v6.81h-16.32v8.89h18.17c2.04,3.85,1.91,6.95-1.93,7.2-7.8.52-15.65.16-24.29.16Z"/>
  <path class="cls-1" d="M216.4,1045.81c-1.85,2.28-3.14,3.89-4.51,5.58-2.51-1.19-4.52-2.4-6.7-3.14-5.19-1.75-10.95-.08-13.66,3.72-3.36,4.72-3.27,11.68.21,16.03,3.33,4.16,8.49,5.67,13.57,3.38,1.92-.87,3.28-2.99,5.08-4.71-3.61-3.07-11.24-.18-8.45-8.52h13.37c3.52,10.34.45,17.8-8.23,20.59-10.02,3.22-21.6-2.34-24.65-11.83-2.82-8.78-.22-17.7,6.76-23.12,7.03-5.46,15.95-5.55,23.96-.23.97.64,1.91,1.32,3.26,2.24Z"/>
  <path class="cls-1" d="M582.19,1041.04v6.33h-19.66v8.32h16.94v7h-17.03v9.08h19.3c.25,2.7.4,4.42.61,6.7h-27.38v-37.43h27.21Z"/>
  <path class="cls-1" d="M316.8,1047.44v8.28c4.48,0,8.6-.11,12.72.03,4.61.16,5.23,1.13,4.15,6.89h-16.71c-.21,3.2-.37,5.57-.59,9h20.15v6.81h-26.9v-37.32h26.52v6.31h-19.34Z"/>
  <path class="cls-1" d="M738,1065.93c-.29,4.6-.52,8.2-.79,12.4-2.34.13-4.36.24-6.26.34-.58-1.1-1.14-1.68-1.15-2.26-.11-10.89-.3-21.79-.05-32.68.03-1.36,2.36-3.8,3.63-3.81,5.98-.01,12.12-.04,17.9,1.26,6.48,1.46,9.47,7.34,8.51,14.04-.89,6.22-5.48,10.34-12.09,10.68-2.98.15-5.97.03-9.71.03ZM738,1059.17c3.83-.28,7.2.1,10.03-.95,1.85-.69,4.09-3.51,4.01-5.28-.08-1.78-2.54-4.36-4.45-4.93-2.84-.84-6.11-.22-9.59-.22v11.38Z"/>
  <path class="cls-1" d="M630.5,1051.77c3.37,1.58,5.64,2.76,8,3.71,2.79,1.12,5.79,1.75,8.46,3.08,4.11,2.05,6.19,5.48,5.78,10.27-.41,4.83-3.39,7.53-7.49,9.25-7.08,2.95-16.17.67-22.02-5.74,1.26-1.49,2.57-3.04,3.14-3.71,5.3,1.21,9.54,2.52,13.88,3,1.47.16,3.18-1.76,4.78-2.74-1.21-1.61-2.11-3.69-3.7-4.7-1.91-1.22-4.39-1.6-6.65-2.24-7.19-2.03-11.31-5.99-11.07-10.72.27-5.3,5.9-10.52,12.41-11.52,5.28-.81,11.5,1.58,15.66,6.34-1.07,1.39-2.22,2.88-3.42,4.44-5.75-1.99-11.3-5.71-17.77,1.27Z"/>
  <path class="cls-1" d="M139.56,1077.83c-4.68,1.92-7.71,1.45-9.08-3-.96-3.11-3-4.18-6.09-3.98-2.34.15-4.71.15-7.06,0-3.25-.21-5.55.86-6.65,4.09-1.5,4.41-4.59,4.73-9.03,3.09.76-1.98,1.43-3.81,2.17-5.6,3.79-9.16,7.64-18.3,11.37-27.48,1.03-2.54,2.31-4.33,5.4-4.38,3.11-.06,4.41,1.64,5.45,4.23,4.37,10.88,8.87,21.71,13.51,33.05ZM125.44,1063.06c-1.59-4.52-2.91-8.28-4.24-12.03h-1.24c-1.45,3.89-2.91,7.77-4.51,12.03h9.98Z"/>
  <path class="cls-1" d="M463.07,1077.71c-4.89,2.09-7.84,1.47-9.1-3.04-.83-2.96-2.82-3.91-5.69-3.77-2.18.1-4.38.11-6.55-.02-3.74-.23-6.49.67-7.65,4.8-1.24,4.4-4.63,3.3-7.95,2.84-.05-.99-.3-1.72-.08-2.25,4.47-10.88,8.88-21.78,13.62-32.54.63-1.43,3.12-3.14,4.46-2.92,1.9.31,4.36,1.91,5.14,3.61,3.5,7.62,6.49,15.49,9.67,23.26,1.31,3.21,2.64,6.41,4.13,10.03ZM439.03,1063.15h10.48c-1.86-4.55-3.42-8.37-5.47-13.36-1.92,5.12-3.32,8.84-5.02,13.36Z"/>
  <path class="cls-1" d="M546.53,1048.6c-1.24,1.31-2.66,2.81-3.83,4.05-10.94-6.1-16.97-6.31-20.97-1.3-3.52,4.4-3.27,12.76.5,16.85,4.75,5.15,10.65,4.92,19.36-1.11,1.42,1.22,2.96,2.55,4.44,3.82-4.55,7.32-12.45,10.07-20.97,7.66-8.07-2.28-13.95-10.33-13.86-18.99.09-8.99,6.23-17.19,14.69-19.61,7.42-2.12,16.21,1.25,20.64,8.62Z"/>
  <path class="cls-1" d="M829.05,1078.35h-7.06v-38.22h26.36v6.92c-6.13.32-12.03.62-18.34.95v7.46h15.74c2.51,5.54,1.75,7.12-3,7.3-3.99.15-8,.03-12.8.03-.31,5.33-.59,10.06-.91,15.56Z"/>
  <path class="cls-1" d="M303.15,1041.63c-1.01,2.99-1.78,5.7-2.82,8.3-3.25,8.12-6.42,16.28-10.03,24.24-.88,1.94-3.08,3.93-5.08,4.54-3.11.94-4.69-1.56-5.77-4.32-3.82-9.7-7.76-19.36-11.61-29.05-.42-1.06-.57-2.22-.83-3.29,5-2.5,7.38-1.79,9.15,2.87,2.85,7.5,5.56,15.05,9.43,22.67,2.62-7.33,5.21-14.67,7.87-21.99,1.85-5.07,3.21-5.68,9.69-3.99Z"/>
  <path class="cls-1" d="M777.07,1040.94v30.45h17.72c.13,2.44.24,4.32.38,6.87h-25.27c-.4-1.21-.97-2.13-.98-3.06-.08-10.42-.2-20.83-.04-31.25.07-4.36,1.79-5.04,8.19-3.01Z"/>
  <path class="cls-1" d="M147.19,1041.1h7.06v37.29h-7.06v-37.29Z"/>
  <path class="cls-1" d="M669.17,1078.4h-6.93v-37.39h6.93v37.39Z"/>
  <path class="cls-1" d="M859.38,1040.04h6.62v38.14c-1.97.16-3.95.32-6.62.53v-38.68Z"/>
  <path class="cls-1" d="M803.18,1039.75c2.84.14,4.7.23,6.9.34v37.56c-3.06,1.48-6.55,2.09-6.72-1.9-.5-11.66-.18-23.36-.18-36Z"/>
  <path class="cls-1" d="M594.7,1068.42c2.15,2.76,4.16,4.26,4.55,6.1.54,2.59-1.38,4.85-4.09,4.23-1.81-.41-4.3-2.45-4.5-4.01-.2-1.56,2.07-3.44,4.04-6.32Z"/>
  <path class="cls-1" d="M964.01,1073.99c-2.79,2.15-4.54,4.55-6.12,4.44-1.7-.12-3.24-2.58-4.85-4.02,1.71-1.53,3.21-3.76,5.2-4.33,1.15-.33,3.07,1.98,5.78,3.91Z"/>
  <path class="cls-1" d="M538.53,80.56c138.08.08,255.76,106.76,257.7,251.77,2.03,151.45-118.3,263.74-254.16,264.28-142.9.57-256.67-114.24-259.59-256.05-2.86-138.91,113.78-262.22,256.04-260ZM403.07,475.19l1-1.2c-.57-2.25-1.2-4.49-1.71-6.76-1.45-6.56-3.08-13.09-4.22-19.7-1.54-8.91,1.29-12.12,10.28-12.28,1.51-.03,3.03-.02,4.54,0,23.71.39,47.43.69,71.14,1.24,4.6.11,7.95-1.32,11.08-4.64,3.79-4.03,8.13-7.55,12.16-11.36,24.46-23.1,48.93-46.19,73.33-69.35,15.38-14.59,30.64-29.3,45.98-43.94,1.07-1.02,2.29-1.87,3.57-2.9,1.76.75,3.23,1.67,4.83,2,6.21,1.3,12.5,3.59,18.69,3.38,17.94-.62,30.71-10.01,36.86-26.66,4.55-12.34,4.43-25.22-3.54-36.72-11.11-16.03-35.44-21.21-52.96-11.62-10.24,5.6-17.31,13.42-20.28,25.05-2.18,8.52-1.78,16.7,1.21,24.72,1.9,5.08.46,8.32-3.31,11.85-20.5,19.22-40.9,38.54-61.11,58.06-20.7,19.99-41.06,40.33-61.78,60.3-2.04,1.97-5.59,3.5-8.35,3.38-9.05-.39-18.05-1.72-27.09-2.54-26.23-2.37-51.87-7.51-76.63-16.58-19.81-7.26-38.99-15.77-56-28.55-2.74-2.06-5.72-3.81-9.18-6.09,0,3.09-.26,5.27.04,7.38,2.82,19.59,8.63,38.35,16.11,56.61.92,2.25,2.58,4.36,4.35,6.07,15.56,15.08,33.99,25.76,53.7,34.36,5.63,2.46,11.52,4.34,17.29,6.49ZM502.78,296.35c-.23-1.66-.37-3.62-.79-5.51-.8-3.61-1.77-7.18-2.67-10.76-1.08-4.3-.04-7.75,3.34-10.87,4.44-4.1,9.39-8.07,12.46-13.11,4.81-7.9,10.18-14.42,19.47-16.82.64-.17,1.21-.59,1.81-.88,3.31-1.56,5.95-3.43,6.43-7.65.19-1.71,1.94-3.47,3.38-4.78,2.73-2.48,5.92-4.47,8.61-6.99,3.29-3.1,6.9-4.33,11.43-3.99,4.72.35,8.85-1.34,12.5-5.94-2.67-4.02-5.38-8.09-8.67-13.03,4.86-5.09,9.64-10.09,14.32-15-7.97-14.03-19.81-18.03-33.08-9.8-7.43,4.6-13.53,11.45-19.89,17.64-2.45,2.38-3.95,5.74-5.88,8.65.21.89-.41,1.25-1.05,1.31-1.5.15-3.02.22-4.53.22-22.07-.05-43.99-1.64-65.72-5.7-8.15-1.52-8.21-1.28-11.76,6.13-11.39,23.8-18.93,48.95-24.91,74.52-3.44,14.69-5.9,29.68-7.7,44.67-1.43,11.89-2.34,11.01,9.47,15.8.93.38,1.92.64,2.89.89,10.15,2.62,20.02,5.5,27.25,14.08,2.25,2.67,5.95,4.92,9.35,5.63,6.1,1.27,9.78,4.73,12.62,9.81,1.39,2.49,2.97,4.9,4.67,7.2,4.36,5.88,10.33,9.11,17.56,9.65,4.17.31,7.98-.89,11.55-5.28-2.07.21-2.88.3-3.69.37-13.25,1.26-18.87-3.85-18.81-17.02.04-9.86,2.19-11.44-10.7-14.02-9.34-1.87-9.1-2.3-7.11-11.3,1.04-4.71,2.97-9.6.68-15.35-1.91.94-3.46,1.45-4.7,2.37-2.56,1.9-4.88,4.12-7.45,6.02-11.16,8.27-26.26,2.88-29.82-10.6-3.81-14.4,4.52-32.79,18.32-38.45,13.38-5.49,26.93-7.39,40.84-.18,6.26,3.24,10.71,6.14,10.59,13.98-.1,6.42,3.11,7.74,9.36,4.09ZM668.38,400.11c2.21.99,4.28,2.03,6.44,2.87,14.4,5.59,28.33,4.68,40.5-5.06,12.24-9.8,16.21-23.4,13.33-38.52-2.8-14.72-14.43-25.47-29.4-27.48-15.42-2.07-28.21,3.34-37.46,15.95-7.51,10.24-7.29,21.94-5.69,33.88.31,2.29-.52,5.39-1.99,7.13-5.32,6.28-11.28,12.02-16.74,18.19-10.69,12.09-21.36,24.21-31.65,36.63-2.03,2.45-2.99,6.29-3.25,9.59-.51,6.34-2.74,11.69-6.81,16.45-7.18,8.4-16.63,10.28-26.99,9.27-3.89-.38-6.66.92-9.35,3.69-8.55,8.82-17.41,17.34-25.97,26.16-3.04,3.14-6.35,4.6-10.73,4.44-12.27-.43-24.55-.56-36.82-.92-9.07-.26-18.13-.67-27.2-1.06-3.27-.14-6.53-.42-10.92-.72,4.97,7.88,9.5,14.89,13.83,22.02,1.7,2.81,3.94,3.69,7.1,3.69,24.58-.03,49.16.17,73.73-.02,2.68-.02,5.95-1.4,7.92-3.25,8.1-7.58,15.75-15.62,23.65-23.41,13.41-13.23,27-26.27,40.27-39.63,8.02-8.08,16.41-15.96,18.21-28.29.41-2.84,3.06-5.52,5.11-7.91,5.02-5.88,10.24-11.6,15.47-17.3,4.99-5.43,10.1-10.75,15.4-16.38ZM383.51,375.35c.97-26.68,1.93-52.88,2.92-80.07-21.98-7.7-43.1-19.15-62.96-34.07-1.19,2.58-2.08,4.17-2.67,5.86-6.18,17.87-10.23,36.09-10.87,55.13-.21,6.12,1.79,10.03,5.72,14.09,17.76,18.36,39.9,29.34,63.4,38.08,1.5.56,3.15.7,4.47.98ZM535.11,569.57c10.7.25,20.84-.27,30.83-2.68,1.07-.26,2.14-1.05,2.94-1.86,5.45-5.55,12.3-8.62,19.36-11.48,10.19-4.13,20.62-8.69,27.16-17.7,6.17-8.51,14.01-12.99,23.55-16.06,11.96-3.86,19.2-12.69,24.44-23.89,3.59-7.68,8.33-14.86,12.93-22.02,2.52-3.93,6.09-7.19,8.7-11.08,5.69-8.51,2.69-15.73-7.32-18.13-6.37-1.53-12.79-2.89-19.17-4.39-5.59-1.32-8.3-.12-10,5.41-1.32,4.3-1.68,8.89-2.88,13.24-.96,3.44-1.71,7.51-4,9.92-26.56,27.88-53.42,55.48-80.12,83.22-3.75,3.9-8.08,5.87-13.45,5.73-2.52-.07-5.05-.04-7.57,0-5.91.07-6.66.91-6.13,6.91.12,1.32.38,2.62.71,4.88ZM382.3,168.86c-20.36,20.37-36.38,43.5-49.04,69.62,17.51,15.05,37.55,24.4,59.08,33.4,6.08-30.68,16.78-58.64,30.34-85.67-13.64-5.86-26.81-11.52-40.38-17.35ZM617.09,410.88c-9.36-7.76-17.57-14.61-25.84-21.4-1.68-1.38-3.47-2.71-5.38-3.74-6.46-3.51-13.07-3.02-17.74,1.55-21.66,21.17-43.2,42.47-64.9,63.6-3.3,3.21-3.38,6.27-1.23,9.88,3.35,5.64,6.51,11.4,10.11,16.88,2.59,3.95,5.76,7.52,8.93,11.6,4.85-4.58,8.92-8.32,12.87-12.19,4.2-4.12,8.19-8.45,12.44-12.51,2.49-2.38,2.9-4.61,1.93-8.05-5.05-17.92,14.1-37.15,32.06-32.25,5.6,1.53,10.97,3.9,15.63,5.6,7.05-6.33,14.01-12.58,21.14-18.96ZM458.83,170.78c2.86.71,4.74,1.37,6.68,1.63,13.15,1.76,26.31,3.4,39.46,5.13,8.62,1.13,15.86-.36,21.88-7.71,5.49-6.7,8.48-13.55,7.23-22.16-.6-4.16-1.28-8.32-1.51-12.5-.46-8.56.12-16.9,7.19-23.19.27-.24.19-.87.55-2.82-5.5,1.31-10.79,1.51-14.94,3.78-10.43,5.7-20.75,11.79-30.39,18.73-14.31,10.3-25.37,23.85-36.15,39.12ZM760.54,401.52c.55-1.4,1.12-2.6,1.51-3.86,4.63-15.2,7.1-30.81,7.48-46.63.29-12.07.09-24.24-1.22-36.22-1.13-10.28-4.1-20.36-6.32-30.52-.74-3.36-3.13-4.41-6.39-4.43-3.49-.02-5.56,1.77-5.96,4.93-.61,4.8-1.15,9.7-.89,14.51.38,6.81-1.15,12.74-4.66,18.65-3.68,6.2-5.65,12.85-4.22,20.64,1.37,7.47,1.44,15.34.93,22.96-.83,12.32,1.19,23.79,7.76,34.25,2.64,4.2,6.45,6.69,11.99,5.72ZM403.55,150.28c.08.77.16,1.54.25,2.31,10.21,4.06,20.42,8.12,31.26,12.42,12.96-19.58,27.67-36.72,46.31-50.32-28.31,7.14-54.44,18.45-77.81,35.59ZM444.07,550.1c-2.76-3.39-5.16-5.76-6.89-8.56-6.53-10.58-12.99-21.21-19.16-32.01-1.96-3.43-4.2-5.7-7.99-7.05-8.87-3.15-17.68-6.51-26.31-10.24-8.02-3.47-15.78-7.54-23.66-11.34,22.88,28.82,49.96,52.43,84,69.2ZM589.35,113.38c2.07,1.69,4.18,3.34,6.21,5.07,10.61,9.03,20.11,19.03,25.27,32.2,2.14,5.46,5.3,9.13,10.74,10.98,3.16,1.07,6.31,2.2,9.46,3.31l.97-1.36c-1.11-3.63-2.64-7.19-3.24-10.9-1.58-9.74-.02-12.76,8.25-13.73.25-.03.44-.46,1.42-1.52-1.95-1.99-3.69-4.43-6.03-5.97-3.2-2.12-6.81-3.64-10.32-5.26-13.59-6.31-27.73-10.88-42.74-12.82ZM728.3,236.47c2.17,3.93,3.98,6.7,5.28,9.69,2.81,6.45,5.23,13.06,8.08,19.5.84,1.89,2.55,3.4,3.87,5.08.47-.2.95-.41,1.42-.61,2.26-7.29,6.97-14.52,2.72-22.42-6.02-11.18-12.74-21.98-19.27-32.88-.55-.93-1.91-1.37-2.89-2.04.89,9.29,9.51,15.14,9.82,24.72-3.07-.35-5.44-.63-9.02-1.04ZM670.78,165.54c4.84,8.94,9.51,17.74,14.42,26.39.59,1.04,2.58,1.98,3.79,1.84,5.79-.66,10.46,1.55,14.87,4.89.79.6,2,.64,3.36,1.04-3.64-9.03-27.6-31.39-36.45-34.17ZM485.9,314.42c8.43,4.26,17.07,8.57,25.65,12.99,3.72,1.92,7.36,2.46,11.39.83-4.58-9.69-26.16-19.04-37.04-13.82ZM590.09,196.37c-2.98,2.07-3.8,4.89-2.06,7.51,2.18,3.27,5.64,3.74,9.24,2.33.66-5.43-1.19-8-7.19-9.84ZM532.15,336.61c4.46.81,8.93,1.62,14.16,2.56-2.39-5.16-7.64-6.02-14.16-2.56Z"/>
  <path class="cls-1" d="M652.51,293.44c-13.95-.69-24.63-11.37-24.08-24.07.54-12.37,14.04-24.58,26.34-23.82,13.25.82,23.78,12.19,23.24,25.1-.53,12.71-12.53,23.43-25.5,22.79Z"/>
  <path class="cls-1" d="M692.17,349.26c11.83.02,20.34,8.35,20.23,19.82-.1,11.22-10.06,21.08-21.09,20.88-10.95-.2-19.81-9.48-19.77-20.7.04-11.8,8.52-20.02,20.63-19.99Z"/>
</svg>