<?xml version="1.0" encoding="utf-8"?>
<!-- Generator: Adobe Illustrator 28.2.0, SVG Export Plug-In . SVG Version: 6.00 Build 0)  -->
<svg version="1.1" id="Layer_1" xmlns="http://www.w3.org/2000/svg" xmlns:xlink="http://www.w3.org/1999/xlink" x="0px" y="0px"
	 viewBox="0 0 1080 1080" style="enable-background:new 0 0 1080 1080;" xml:space="preserve">
<style type="text/css">
	.st0{fill:#0A2E4E;}
</style>
<g>
	<g>
		<path class="st0" d="M105.14,312.61c0-28.95-0.05-57.9,0.02-86.85c0.03-11.73,0.2-11.56,11.44-15.33
			c17.93-6.02,35.78-12.27,53.66-18.46c26.65-9.24,53.28-18.51,79.92-27.77c29.76-10.33,59.51-20.67,89.27-30.99
			c32.62-11.3,65.25-22.56,97.86-33.89C469.89,88,502.47,76.66,535.01,65.2c3.71-1.31,6.97-1.11,10.62,0.16
			c36.18,12.64,72.42,25.09,108.6,37.72c29.3,10.23,58.5,20.72,87.8,30.94c27.71,9.67,55.5,19.1,83.23,28.73
			c24.15,8.38,48.24,16.95,72.4,25.31c23.84,8.24,47.71,16.35,71.62,24.39c3.75,1.26,5.36,2.95,5.39,7.33
			c0.22,34.6,1.33,69.2,1.07,103.79c-0.23,30.75-1.64,61.49-2.95,92.22c-0.73,17.26-2.04,34.5-3.61,51.7
			c-1.13,12.38-3.06,24.69-4.73,37.01c-1.76,12.96-3.24,25.98-5.58,38.84c-3.01,16.6-6.51,33.12-10.23,49.58
			c-6.33,28-14.48,55.47-24.57,82.36c-8.99,23.97-19.52,47.29-31.92,69.65c-15.99,28.83-34.25,56.24-56.29,80.88
			c-14.41,16.11-28.8,32.34-44.45,47.2c-35.08,33.31-74.01,61.72-114.86,87.61c-37.27,23.62-75.98,44.56-115.87,63.36
			c-5.41,2.55-10.89,4.95-16.29,7.52c-3.03,1.44-5.78,1.53-8.98,0.08c-46.94-21.42-92.32-45.73-135.84-73.42
			c-25.13-15.99-49.22-33.44-72.6-51.93c-26.71-21.13-51.19-44.6-74.04-69.71c-35.28-38.76-63.29-82.37-84.43-130.38
			c-9.77-22.19-18.8-44.64-25.1-68.07c-6.2-23.04-12.31-46.11-17.78-69.32c-3.45-14.64-5.93-29.52-8.35-44.37
			c-1.68-10.31-2.56-20.74-3.73-31.13c-1.34-11.87-2.7-23.74-3.87-35.62c-1.07-10.91-2.41-21.83-2.75-32.77
			c-1.17-37.4-1.95-74.82-2.87-112.22C104.41,312.62,104.77,312.61,105.14,312.61z M153.14,325.17c1.09,37.75,1.49,67.69,2.96,97.58
			c1.28,26.03,3.73,52,5.74,77.99c0.38,4.96,0.97,9.91,1.76,14.82c1.48,9.31,3.08,18.6,4.79,27.87c2.38,12.86,4.16,25.9,7.54,38.5
			c5.79,21.59,12.27,43.02,19.1,64.31c10.8,33.68,26.62,65.09,45.02,95.19c14.69,24.02,32.21,45.94,51.05,66.88
			c23.13,25.72,49.04,48.34,76.47,69.23c24.6,18.73,50.35,35.81,76.83,51.86c29.61,17.95,60.24,33.91,91.29,49.13
			c3.36,1.65,6.39,1.79,9.81,0.01c11.06-5.76,22.26-11.26,33.35-16.95c33.32-17.09,65.6-35.89,96.74-56.73
			c26.6-17.81,51.93-37.24,75.52-58.76c22.6-20.62,43.8-42.68,62.64-66.96c23.9-30.79,43.3-64.18,58.68-99.86
			c10.11-23.45,18.38-47.64,24.51-72.45c5.56-22.51,10.86-45.1,15.4-67.83c2.82-14.1,4.14-28.5,5.89-42.8
			c1.75-14.32,3.63-28.66,4.68-43.04c1.45-19.88,2.6-39.81,3.1-59.74c0.6-23.94,0.48-47.91,0.49-71.86
			c0-22.29-0.31-44.58-0.31-66.87c0-3.83-1.6-5.83-5.02-6.91c-4.75-1.5-9.5-2.99-14.19-4.65c-34.88-12.32-69.75-24.64-104.61-37.03
			c-18.59-6.61-37.1-13.47-55.72-20.02c-30.34-10.68-60.74-21.21-91.11-31.8c-35.69-12.44-71.46-24.69-107.02-37.52
			c-5.84-2.11-10.6-1.77-16.07,0.2c-25.13,9.04-50.31,17.96-75.55,26.7c-29.91,10.36-59.93,20.4-89.85,30.73
			c-33.08,11.42-66.1,23.05-99.17,34.53c-35.88,12.45-71.77,24.88-107.72,37.14c-4.27,1.46-5.87,3.6-5.91,8.13
			C153.99,280.43,153.45,306.7,153.14,325.17z"/>
		<path class="st0" d="M199.72,505.06c0.45-27.5,2.24-50.89,7.31-73.84c7.22-32.75,19.07-63.77,35.76-92.96
			c18.2-31.82,40.2-60.63,67.14-85.54c27.44-25.37,58.15-45.93,92.49-60.82c20.9-9.06,42.59-15.71,64.82-20.8
			c32.91-7.53,66.25-8.54,99.67-6.37c25.08,1.62,49.52,7.27,73.49,14.98c20.74,6.67,40.94,14.53,60.16,24.8
			c34.31,18.34,65.18,41.25,91.31,70.14c21.15,23.38,38.7,49.25,52.63,77.65c9.69,19.76,17.25,40.21,22.71,61.42
			c9.81,38.11,13.01,76.94,10.08,116.12c-2.06,27.5-7.73,54.37-16.25,80.69c-9.68,29.92-22.93,58.05-40.64,83.99
			c-14.09,20.65-30.48,39.36-48.59,56.71c-24.86,23.81-52.86,42.93-83.44,58.42c-23.62,11.96-48.28,21.44-74.15,27.12
			c-30.11,6.61-60.59,10.19-91.53,7.26c-12.56-1.19-25.24-1.62-37.64-3.71c-31.08-5.23-60.78-15.01-89.32-28.48
			c-26.81-12.65-51.23-28.88-73.96-47.75c-27.88-23.14-51.17-50.24-70.17-81.11c-16.01-26.02-28.72-53.49-37.42-82.73
			C204.55,567.93,200.17,534.76,199.72,505.06z M360.24,686.41c0.2-2.21,0.6-3.37,0.35-4.37c-1.22-4.81-2.95-9.52-3.88-14.38
			c-1.7-8.93-3.08-17.93-4.29-26.93c-0.2-1.45,0.74-3.94,1.88-4.52c3.03-1.55,6.43-3.14,9.73-3.25c9.31-0.31,18.64,0.07,27.96,0.25
			c26.29,0.5,52.57,1.09,78.86,1.47c1.91,0.03,4.3-0.93,5.7-2.24c28.05-26.26,56.03-52.61,83.95-79.01
			c23.22-21.94,46.37-43.95,69.51-65.98c8.56-8.14,16.99-16.42,25.49-24.62c1.68-1.62,3.24-3.28,6.06-1.97
			c6.97,3.24,14.34,4.87,22.01,5.82c10.1,1.25,19.78-0.09,28.53-4.72c20.99-11.1,31.34-28.86,31.12-52.71
			c-0.12-12.35-4.17-23.06-12.55-32.15c-14.99-16.28-43.46-22.16-65.26-11.09c-16.12,8.19-26.41,20.71-29.38,38.41
			c-1.79,10.68-0.86,21.65,3.29,31.83c1.93,4.72,0.38,7.25-2.83,10.24c-13.77,12.8-27.48,25.66-41.03,38.69
			c-35.4,34.01-70.72,68.09-106.03,102.19c-6.34,6.13-12.35,12.61-18.8,18.61c-1.76,1.64-4.68,3.14-6.94,2.98
			c-16.07-1.14-32.14-2.5-48.16-4.25c-9.21-1-18.35-2.72-27.47-4.37c-9.76-1.77-19.62-3.3-29.17-5.91
			c-13.11-3.58-26.1-7.69-38.9-12.27c-22.75-8.14-44.59-18.24-64.43-32.25c-5.9-4.17-11.85-8.27-18.38-12.82
			c0,4.26-0.46,7.76,0.08,11.1c3.35,20.67,8.17,40.94,15.61,60.61c4.15,10.98,8.59,21.18,18.16,29.01
			c18.29,14.96,38.09,27.3,59.56,36.98C340.07,679.02,349.93,682.39,360.24,686.41z M494.28,554.05c-2.91,0.3-5.42,0.54-7.92,0.83
			c-11.05,1.27-19.3-4.01-21.24-14.22c-0.76-4.01-0.45-8.3-0.11-12.42c0.8-9.63-1.37-12.47-10.98-14.01
			c-3.59-0.58-7.19-1.33-10.66-2.41c-4.89-1.52-4.95-2.73-3.68-7.75c1.74-6.88,3.04-13.9,4.01-20.93c0.51-3.72-1.64-5.02-5.3-3.82
			c-1.07,0.35-2.08,1.04-2.97,1.76c-3.74,3.04-7.45,6.12-11.14,9.22c-12.83,10.78-29.73,1.67-35.08-7.99
			c-5.01-9.05-4.56-18.47-1.84-28.03c4.09-14.42,12.23-25.49,26.9-30.33c6.4-2.11,13.26-2.86,19.93-4.13
			c7.31-1.39,14.43-1.52,21.35,2.11c4.39,2.3,9.11,3.97,13.74,5.79c5.65,2.22,8.16,6.37,8.31,12.31c0.07,2.8,0.32,5.67,1.04,8.37
			c0.92,3.46,3.74,4.5,8.09,3.45c3.06-0.74,5.32-2.11,4.39-5.86c-0.91-3.69-1.52-7.49-2.74-11.08c-3.44-10.06-3.92-19.19,6.54-25.7
			c1.53-0.95,2.95-2.25,4.07-3.67c5.03-6.35,10.4-12.51,14.68-19.33c2.36-3.76,4.94-6.22,8.92-7.94c6.09-2.63,12.02-5.65,17.86-8.8
			c1.41-0.76,3.14-2.74,3.09-4.09c-0.24-6.02,3.65-8.79,7.86-11.71c3.95-2.75,7.81-5.71,11.34-8.97c2.85-2.63,5.85-3.59,9.55-2.91
			c5.96,1.08,11.16-1.16,16.12-4.01c2.89-1.66,3.73-4.29,1.99-7.23c-1.35-2.27-3.06-4.33-4.69-6.41c-1.71-2.19-3.51-4.31-5.33-6.52
			c1.82-2.74,3.16-5.26,4.99-7.37c2.17-2.5,4.65-4.77,7.19-6.9c7.9-6.6,8.32-6.89,1.72-14.58c-6.5-7.56-14.93-12.5-25.36-11.19
			c-8.34,1.05-16.07,4.32-22.22,10.33c-7.25,7.08-14.33,14.34-21.45,21.55c-2.44,2.48-5.91,4.66-2.34,9.41
			c-2.93,0.21-5.05,0.58-7.15,0.47c-22.92-1.23-45.85-2.29-68.73-3.94c-8.24-0.59-16.43-2.4-24.55-4.11
			c-5.81-1.22-6.58-1.16-9.38,4.19c-15.97,30.5-25.48,63.3-33.96,96.41c-3.08,12.02-5.34,24.29-7.28,36.56
			c-2.13,13.41-3.43,26.95-5.17,40.42c-0.4,3.07,0.51,5.17,3.5,6.28c6.97,2.59,13.78,5.8,20.95,7.68c9.68,2.54,18.3,6.06,25.5,13.53
			c4.38,4.54,10.11,9.12,16,10.55c8.29,2.02,12.94,6.67,16.62,13.48c5.92,10.96,13.96,19.23,26.85,21.77
			C482.5,563.45,491.65,560.02,494.28,554.05z M709.85,586.18c2.59,1.27,4.93,2.53,7.36,3.59c14.06,6.14,28.23,6.62,42.58,0.93
			c24.92-9.88,36.77-39.17,29.49-63.02c-6.05-19.85-26.69-34.14-47.69-33c-16.75,0.91-30.47,7.55-40.52,21.06
			c-10.16,13.65-11.02,29.12-8.12,45.16c0.56,3.12,1.58,5.85-1.07,8.79c-20.99,23.15-41.86,46.4-62.72,69.67
			c-4.71,5.26-7.95,10.81-7.67,18.6c0.17,4.76-2.06,10.14-4.65,14.36c-9.41,15.31-24.01,19.54-40.95,17.15
			c-3.59-0.51-5.9,0.13-8.37,2.63c-12.49,12.68-25.25,25.11-37.64,37.88c-3.46,3.57-7.13,4.84-11.95,4.71
			c-15.3-0.43-30.61-0.72-45.92-0.77c-17.79-0.06-35.58,0.14-53.12-3.57c-0.55-0.12-1.2,0.25-2.22,0.48
			c0.63,1.29,1.01,2.33,1.6,3.25c5.57,8.66,11.5,17.1,16.63,26c2.8,4.86,6.1,6.39,11.59,6.39c33.29,0,66.58,0.42,99.87,0.52
			c1.85,0.01,4.09-1.28,5.49-2.63c9.42-9.16,18.67-18.49,27.96-27.78c23.78-23.74,47.52-47.52,71.36-71.2
			c4.26-4.23,6.92-9.13,8.63-14.85c1.82-6.11,2.68-12.6,7.38-17.67C681.41,617.5,695.45,601.96,709.85,586.18z M334.28,554.42
			c0-14.37-0.51-27.5,0.12-40.58c0.98-20.39,2.61-40.76,4.27-61.11c0.33-3.99-1.18-5.64-4.48-7.05
			c-12.49-5.37-25.32-10.15-37.22-16.62c-13.83-7.52-26.84-16.56-40.17-25.01c-3.96-2.51-4.34-2.5-5.85,1.81
			c-1.37,3.91-2.66,7.84-3.96,11.77c-7.73,23.32-12.2,47.19-12.12,71.82c0.01,1.82,0.67,4.05,1.83,5.4
			c8.8,10.25,18.52,19.58,29.69,27.24c16.78,11.5,34.79,20.72,53.85,27.83C324.94,551.68,329.8,553,334.28,554.42z M545.52,793.62
			c0,0.03,0,0.07,0,0.1c-0.83,0-1.67,0.03-2.5,0c-10.11-0.43-12.68-1.24-11.27,12.99c0.32,3.26,1.54,4.29,4.69,4.03
			c9.45-0.78,18.9-1.47,28.37-2.04c6.51-0.39,12.51-1.67,16.79-7.22c0.78-1.01,1.98-1.82,3.15-2.41c8.88-4.45,17.76-8.89,26.7-13.21
			c13.34-6.44,25.55-14.2,34.04-26.83c3.42-5.09,8.22-8.57,14.2-10.45c5.54-1.74,11.23-3.29,16.4-5.84
			c13.21-6.53,22.47-16.96,27.62-30.77c4.06-10.88,9.96-20.53,17.63-29.23c4.17-4.72,8.16-9.67,11.66-14.89
			c6.17-9.19,3.37-17.99-6.72-22.26c-1.66-0.71-3.44-1.2-5.21-1.6c-7.91-1.81-15.91-3.3-23.74-5.4c-8.03-2.15-11.74-0.8-14.39,7.17
			c-1.66,4.99-2.72,10.28-3.22,15.51c-0.67,7.05-2.63,12.92-8.15,17.99c-10.04,9.22-19.61,18.97-29.06,28.82
			c-25.1,26.17-50.06,52.49-75,78.81c-3.74,3.95-8.16,6.25-13.51,6.69C551.2,793.81,548.35,793.62,545.52,793.62z M385.74,302.61
			c-1.82-0.85-3.25-1.61-4.75-2.19c-4.18-1.6-8.48-2.9-12.57-4.7c-10.61-4.7-21.22-9.44-31.66-14.51c-3.98-1.93-6.74-1.6-9.39,1.96
			c-1.98,2.66-4.3,5.07-6.56,7.51c-21.35,22.89-38.45,48.69-52.5,76.57c-2.52,5-2.4,5.59,2.07,9.15
			c21.14,16.8,45.17,28.44,69.84,38.93c2.92,1.24,4.79,0.88,5.68-2.92c2.64-11.26,5.32-22.54,8.69-33.6
			C362.51,352.75,372.87,327.64,385.74,302.61z M642.76,598.4c-3.12-2.27-5.47-4.45-8.21-5.86c-7.5-3.87-13.72-9.22-19.63-15.16
			c-3.72-3.74-7.89-7.2-12.36-10.01c-8-5.04-18.26-7.37-27.38,2.53c-8.32,9.03-17.74,17.04-26.52,25.66
			c-19.69,19.34-39.27,38.81-58.94,58.17c-3.14,3.09-4.14,6.44-1.74,10.27c7.67,12.22,15.32,24.44,23.23,36.5
			c2.34,3.57,4.17,3.56,7.3,0.52c10.62-10.3,21.11-20.75,31.73-31.05c2.35-2.28,2.69-4.74,1.82-7.7
			c-7.05-24.09,11.65-43.11,32.12-44.61c9.34-0.68,18.19,1.73,25.93,7.08c3.61,2.5,6.01,2.2,8.93-0.95
			c4.85-5.24,10.15-10.07,15.09-15.25C637.05,605.47,639.65,602.08,642.76,598.4z M431.83,283.3c6.24,1.26,11.52,2.42,16.84,3.37
			c5.22,0.93,10.45,1.78,15.71,2.41c8.57,1.02,17.21,1.53,25.73,2.8c17.36,2.59,21.25,1.45,33.35-11.06c0.58-0.6,1.15-1.2,1.69-1.83
			c6.08-7.17,9.22-15.23,7.81-24.8c-0.85-5.74-1.65-11.51-2.06-17.3c-0.91-12.79-0.05-25.07,11.55-33.63
			c0.13-0.1-0.03-0.59-0.12-1.85c-5.52,0.62-11.48,0.05-16.41,2.03c-36.87,14.8-65.21,40.34-88.71,71.75
			C435.47,277.52,433.98,280.03,431.83,283.3z M844.3,506.63c0.35-0.04,0.7-0.08,1.06-0.12c-1.58-16-2.66-32.08-4.93-47.98
			c-1.35-9.46-4.48-18.68-6.98-27.96c-0.35-1.31-1.36-2.82-2.5-3.48c-5.66-3.25-12.88-0.59-14.27,5.82
			c-1.22,5.6-1.85,11.57-1.34,17.25c0.94,10.54-1.48,19.71-6.91,28.8c-4.68,7.83-6.4,16.42-4.55,26.18
			c1.85,9.8,2.04,20.21,1.05,30.17c-1.49,15,1.91,28.62,8.13,41.89c2.5,5.34,6.54,9.11,12.19,11.11c5.2,1.85,7.22,0.91,8.78-4.48
			C841.33,558.62,844.61,532.86,844.3,506.63z M357.79,256.48c1.47,1.39,1.86,2.02,2.42,2.25c12.69,5.24,25.35,10.53,38.16,15.48
			c1.26,0.49,3.85-0.77,4.97-1.99c2.68-2.92,4.93-6.24,7.2-9.51c13.19-18.96,29.05-35.32,47.63-49.06c1.6-1.19,3.14-2.46,4.75-3.63
			c1.56-1.14,3.18-2.2,4.77-3.3C427.89,216.21,391.01,231.44,357.79,256.48z M415.11,785.03c-0.43-0.58-0.84-1.18-1.28-1.75
			c-6.42-8.23-13.47-16.07-19.11-24.8c-6.38-9.88-11.56-20.54-17.14-30.93c-1.67-3.11-3.9-5.08-7.33-6.21
			c-23.21-7.7-45.81-16.83-66.92-29.33c-0.88-0.52-1.88-0.84-2.82-1.25c-0.25,0.37-0.5,0.75-0.75,1.12
			C331.3,731.27,368.96,763.23,415.11,785.03z M684.47,241.14c-3.16-7.19-5.52-10.06-11.29-12.53
			c-12.81-5.46-25.55-11.16-38.65-15.8c-10.48-3.71-21.46-6-32.21-8.92c0.01,1.48,0.41,2.18,1,2.59
			c20.87,14.63,37.55,32.63,46.24,57.12c0.5,1.41,1.78,2.93,3.1,3.61c5.02,2.57,10.13,5.01,15.38,7.07c2.1,0.82,4.64,0.53,7.89,0.82
			c-1.19-4.09-2.26-7.02-2.86-10.03c-1.03-5.15-2.29-10.33-2.48-15.53c-0.17-4.51,2.67-6.69,7.23-7.26
			C679.87,242.02,681.92,241.58,684.47,241.14z M788.49,368.11c-0.24,0.52-0.48,1.03-0.73,1.55c7.4,10.2,11.91,21.72,16.02,33.45
			c1.03,2.95,2.37,5.89,4.13,8.46c1.09,1.6,3.22,2.49,4.88,3.7c1.03-1.6,2.31-3.09,3.02-4.82c1-2.44,1.3-5.19,2.41-7.56
			c2.74-5.84,2.24-11.66,0.23-17.45c-4.84-13.95-13.22-25.98-21.19-38.2c-2.47-3.79-5.75-7.05-8.76-10.67
			c-3.26,3.87-3.06,4.64-0.26,9.26c3.95,6.51,7.71,13.14,11.37,19.82c0.74,1.35,0.66,3.14,1.01,5.06
			C796,369.72,792.25,368.92,788.49,368.11z M708.76,272.7c2.7,3.86,5.74,7.52,8.04,11.6c4.88,8.64,9.4,17.49,14.04,26.27
			c1.25,2.35,2.84,4.33,5.79,3.68c7.72-1.69,13.88,1.17,19.7,5.91c1.61,1.31,4.1,1.55,6.18,2.28c0.3-0.59,0.61-1.17,0.91-1.76
			C747.75,301.88,731.34,283.9,708.76,272.7z M518.35,491.58c0.06-0.92,0.22-1.34,0.07-1.56c-0.53-0.83-1.07-1.68-1.76-2.38
			c-12.64-12.82-27.9-18.71-45.89-17.06c-1.97,0.18-3.82,1.65-6.67,2.95c7.37,2.36,13.52,3.76,19.16,6.3
			c6.32,2.85,12.2,6.69,18.24,10.16C506.98,493.14,512.58,493.51,518.35,491.58z M611.89,331.16c5.01,0.13,6.45-0.91,5.4-4.47
			c-1.19-4.02-3.15-7.69-7.19-9.73c-3.77-1.9-6.43-0.83-7.69,3.16C600.42,326.39,604.35,330.96,611.89,331.16z M525.55,501.69
			c6.73,1.49,12.33,2.7,17.92,4c2.28,0.53,4.79,0.76,5.12-2.03c0.16-1.36-1.54-3.91-2.88-4.31
			C539.08,497.39,532.49,497.53,525.55,501.69z"/>
		<path class="st0" d="M688.01,444.38c-19.52-0.15-31.89-18.75-30.19-32.71c1.99-16.41,17.31-30.78,35.14-29.18
			c17.09,1.54,30.72,15.61,28.84,34.04C720.33,430.8,705.83,446.21,688.01,444.38z"/>
		<path class="st0" d="M741.14,518.94c13.57-0.99,26.61,10.95,26.37,25.83c-0.25,15.31-12.06,27.07-27.5,26.93
			c-13.39-0.12-26.11-11.82-25.96-26.86C714.18,531.72,725.93,518.06,741.14,518.94z"/>
	</g>
</g>
</svg>
